<svg xmlns="http://www.w3.org/2000/svg" xmlns:xlink="http://www.w3.org/1999/xlink" width="200" zoomAndPan="magnify" viewBox="0 0 150 149.999998" height="200" preserveAspectRatio="xMidYMid meet" version="1.0"><path fill="#f4f3f3" d="M 88.71875 71.503906 C 87.238281 71.503906 86.097656 71.929688 85.285156 72.765625 C 84.46875 73.601562 83.960938 74.738281 83.75 76.175781 L 93.667969 76.175781 C 93.5625 74.644531 93.050781 73.488281 92.132812 72.695312 C 91.21875 71.902344 90.078125 71.503906 88.71875 71.503906 Z M 88.71875 71.503906 " fill-opacity="1" fill-rule="nonzero"/><path fill="#f4f3f3" d="M 67.09375 70.9375 C 67.925781 70.429688 68.339844 69.53125 68.339844 68.234375 C 68.339844 66.804688 67.789062 65.855469 66.6875 65.402344 C 65.742188 65.082031 64.53125 64.917969 63.0625 64.917969 L 57.339844 64.917969 L 57.339844 71.699219 L 63.84375 71.699219 C 65.179688 71.699219 66.261719 71.445312 67.09375 70.9375 Z M 67.09375 70.9375 " fill-opacity="1" fill-rule="nonzero"/><path fill="#f4f3f3" d="M 67.011719 77.308594 C 66.28125 76.972656 65.253906 76.800781 63.9375 76.789062 L 57.339844 76.789062 L 57.339844 84.980469 L 63.835938 84.980469 C 65.167969 84.980469 66.203125 84.804688 66.949219 84.4375 C 68.292969 83.769531 68.964844 82.496094 68.964844 80.601562 C 68.964844 79.003906 68.3125 77.902344 67.011719 77.308594 Z M 67.011719 77.308594 " fill-opacity="1" fill-rule="nonzero"/><path fill="#f4f3f3" d="M 74.949219 30.496094 C 50.398438 30.496094 30.496094 50.398438 30.496094 74.949219 C 30.496094 99.5 50.398438 119.40625 74.949219 119.40625 C 99.5 119.40625 119.40625 99.5 119.40625 74.949219 C 119.40625 50.398438 99.5 30.496094 74.949219 30.496094 Z M 82.480469 60.859375 L 94.859375 60.859375 L 94.859375 63.933594 L 82.480469 63.933594 Z M 74.074219 85.945312 C 73.492188 86.898438 72.769531 87.707031 71.902344 88.359375 C 70.921875 89.109375 69.765625 89.625 68.433594 89.902344 C 67.097656 90.175781 65.652344 90.316406 64.09375 90.316406 L 50.253906 90.316406 L 50.253906 59.582031 L 65.09375 59.582031 C 68.835938 59.644531 71.488281 60.726562 73.054688 62.855469 C 73.996094 64.164062 74.460938 65.730469 74.460938 67.550781 C 74.460938 69.429688 73.992188 70.933594 73.042969 72.074219 C 72.511719 72.714844 71.734375 73.296875 70.699219 73.824219 C 72.265625 74.394531 73.449219 75.296875 74.246094 76.539062 C 75.042969 77.773438 75.441406 79.277344 75.441406 81.039062 C 75.441406 82.863281 74.992188 84.5 74.074219 85.945312 Z M 99.640625 79.972656 L 83.613281 79.972656 C 83.699219 82.183594 84.464844 83.730469 85.914062 84.617188 C 86.785156 85.171875 87.84375 85.445312 89.085938 85.445312 C 90.394531 85.445312 91.460938 85.113281 92.28125 84.433594 C 92.726562 84.074219 93.121094 83.566406 93.460938 82.921875 L 99.335938 82.921875 C 99.183594 84.230469 98.476562 85.554688 97.203125 86.902344 C 95.234375 89.042969 92.472656 90.117188 88.925781 90.117188 C 85.996094 90.117188 83.410156 89.210938 81.171875 87.40625 C 78.9375 85.597656 77.8125 82.660156 77.8125 78.589844 C 77.8125 74.769531 78.820312 71.847656 80.84375 69.8125 C 82.871094 67.773438 85.492188 66.757812 88.71875 66.757812 C 90.632812 66.757812 92.355469 67.097656 93.894531 67.785156 C 95.429688 68.476562 96.695312 69.558594 97.695312 71.046875 C 98.597656 72.359375 99.179688 73.875 99.449219 75.601562 C 99.601562 76.605469 99.667969 78.066406 99.640625 79.972656 Z M 99.640625 79.972656 " fill-opacity="1" fill-rule="nonzero"/></svg>