<svg xmlns="http://www.w3.org/2000/svg" xmlns:xlink="http://www.w3.org/1999/xlink" width="200" zoomAndPan="magnify" viewBox="0 0 150 149.999998" height="200" preserveAspectRatio="xMidYMid meet" version="1.0"><defs><clipPath id="5e5fcc4025"><path d="M 28.980469 28.980469 L 121.230469 28.980469 L 121.230469 121.230469 L 28.980469 121.230469 Z M 28.980469 28.980469 " clip-rule="nonzero"/></clipPath></defs><g clip-path="url(#5e5fcc4025)"><path fill="#f4f3f3" d="M 75 121.019531 C 49.617188 121.019531 28.980469 100.382812 28.980469 75 C 28.980469 49.617188 49.617188 28.980469 75 28.980469 C 100.382812 28.980469 121.019531 49.617188 121.019531 75 C 121.019531 100.382812 100.382812 121.019531 75 121.019531 Z M 113.8125 81.292969 C 112.460938 80.859375 101.640625 77.640625 89.328125 79.621094 C 94.472656 93.75 96.554688 105.253906 96.96875 107.648438 C 105.777344 101.679688 112.066406 92.242188 113.8125 81.292969 Z M 90.351562 111.238281 C 89.757812 107.789062 87.492188 95.78125 81.972656 81.433594 C 81.882812 81.46875 81.789062 81.488281 81.722656 81.523438 C 59.535156 89.253906 51.574219 104.621094 50.875 106.058594 C 57.542969 111.253906 65.917969 114.363281 74.996094 114.363281 C 80.445312 114.363281 85.636719 113.25 90.351562 111.238281 Z M 45.789062 101.332031 C 46.6875 99.804688 57.472656 81.953125 77.730469 75.394531 C 78.234375 75.230469 78.753906 75.066406 79.277344 74.925781 C 78.289062 72.699219 77.210938 70.453125 76.097656 68.257812 C 56.484375 74.136719 37.429688 73.882812 35.703125 73.867188 C 35.6875 74.261719 35.6875 74.65625 35.6875 75.070312 C 35.6875 85.15625 39.515625 94.375 45.789062 101.332031 Z M 36.53125 67 C 38.289062 67.019531 54.488281 67.089844 72.875 62.21875 C 66.371094 50.644531 59.339844 40.902344 58.296875 39.480469 C 47.296875 44.675781 39.0625 54.8125 36.527344 67.003906 Z M 65.796875 36.835938 C 66.875 38.289062 74.03125 48.015625 80.464844 59.84375 C 94.449219 54.613281 100.363281 46.648438 101.066406 45.640625 C 94.125 39.476562 84.996094 35.734375 75 35.734375 C 71.835938 35.753906 68.742188 36.132812 65.796875 36.832031 Z M 105.433594 50.210938 C 104.605469 51.324219 98.007812 59.773438 83.484375 65.707031 C 84.402344 67.574219 85.28125 69.484375 86.089844 71.402344 C 86.378906 72.089844 86.664062 72.753906 86.933594 73.433594 C 100.023438 71.796875 113.019531 74.425781 114.3125 74.695312 C 114.226562 65.417969 110.898438 56.894531 105.433594 50.210938 Z M 105.433594 50.210938 " fill-opacity="1" fill-rule="nonzero"/></g></svg>