<svg xmlns="http://www.w3.org/2000/svg" xmlns:xlink="http://www.w3.org/1999/xlink" width="200" zoomAndPan="magnify" viewBox="0 0 150 149.999998" height="200" preserveAspectRatio="xMidYMid meet" version="1.0"><defs><clipPath id="ecda0af3cc"><path d="M 45.015625 53.722656 L 104.988281 53.722656 L 104.988281 96.273438 L 45.015625 96.273438 Z M 45.015625 53.722656 " clip-rule="nonzero"/></clipPath></defs><g clip-path="url(#ecda0af3cc)"><path fill="#f4f3f3" d="M 103.054688 93.101562 C 98.554688 88.988281 88.546875 80.011719 81.585938 75.003906 C 88.539062 69.992188 98.550781 61.007812 103.054688 56.894531 Z M 48.4375 94.339844 C 55.101562 88.167969 64.140625 80.269531 69.914062 76.15625 C 72.136719 77.625 73.941406 78.546875 74.992188 78.558594 C 75.949219 78.558594 77.726562 77.636719 79.929688 76.160156 C 85.511719 80.1875 94.453125 87.875 101.535156 94.339844 Z M 46.949219 56.917969 C 51.394531 61.042969 61.242188 69.996094 68.242188 75 C 61.242188 80 51.394531 88.953125 46.949219 93.078125 Z M 101.535156 55.660156 C 91.429688 64.878906 77.410156 76.625 74.992188 76.625 C 72.578125 76.621094 57.855469 64.378906 48.4375 55.660156 Z M 104.023438 53.722656 L 45.980469 53.722656 C 45.664062 53.722656 45.011719 53.984375 45.015625 54.691406 L 45.015625 95.304688 C 45.011719 95.703125 45.347656 96.269531 45.980469 96.273438 L 104.023438 96.273438 C 104.804688 96.296875 104.996094 95.746094 104.988281 95.304688 L 104.988281 54.691406 C 104.996094 54.410156 104.832031 53.714844 104.023438 53.722656 " fill-opacity="1" fill-rule="nonzero"/></g></svg>