<svg xmlns="http://www.w3.org/2000/svg" xmlns:xlink="http://www.w3.org/1999/xlink" width="200" zoomAndPan="magnify" viewBox="0 0 150 149.999998" height="200" preserveAspectRatio="xMidYMid meet" version="1.0"><path fill="#f4f3f3" d="M 69.089844 32.734375 C 48.855469 34.976562 32.367188 51.304688 29.925781 71.507812 C 29.769531 72.777344 29.664062 74.050781 29.617188 75.328125 C 29.566406 76.605469 29.574219 77.882812 29.632812 79.160156 C 29.695312 80.4375 29.8125 81.710938 29.980469 82.980469 C 30.152344 84.246094 30.375 85.503906 30.652344 86.753906 C 30.929688 88 31.261719 89.234375 31.644531 90.453125 C 32.027344 91.675781 32.464844 92.875 32.949219 94.058594 C 33.4375 95.242188 33.972656 96.402344 34.558594 97.539062 C 35.144531 98.675781 35.777344 99.785156 36.460938 100.867188 C 37.140625 101.949219 37.867188 103 38.640625 104.019531 C 39.410156 105.039062 40.222656 106.023438 41.078125 106.976562 C 41.933594 107.925781 42.832031 108.835938 43.765625 109.710938 C 44.699219 110.585938 45.667969 111.417969 46.671875 112.207031 C 47.679688 112.996094 48.714844 113.742188 49.785156 114.445312 C 50.855469 115.144531 51.953125 115.800781 53.078125 116.40625 C 54.203125 117.015625 55.351562 117.574219 56.527344 118.082031 C 57.699219 118.589844 58.890625 119.046875 60.105469 119.453125 C 62.335938 119.8125 63.050781 118.425781 63.050781 117.222656 L 63.050781 109.679688 C 50.691406 112.367188 48.0625 103.703125 48.0625 103.703125 C 46.015625 98.527344 43.109375 97.144531 43.109375 97.144531 C 39.046875 94.378906 43.421875 94.46875 43.421875 94.46875 C 47.882812 94.785156 50.25 99.066406 50.25 99.066406 C 54.132812 105.847656 60.6875 103.835938 63.230469 102.765625 C 63.632812 99.867188 64.8125 97.902344 66.042969 96.789062 C 56.121094 95.671875 45.738281 91.835938 45.738281 74.835938 C 45.738281 69.882812 47.433594 65.914062 50.335938 62.746094 C 49.890625 61.632812 48.324219 56.992188 50.78125 50.96875 C 50.78125 50.96875 54.53125 49.761719 63.050781 55.519531 C 66.703125 54.535156 70.421875 54.042969 74.207031 54.042969 C 77.988281 54.042969 81.707031 54.535156 85.359375 55.519531 C 93.886719 49.761719 97.628906 50.96875 97.628906 50.96875 C 100.082031 56.992188 98.519531 61.632812 98.074219 62.746094 C 100.976562 65.90625 102.671875 69.882812 102.671875 74.835938 C 102.671875 91.878906 92.230469 95.628906 82.28125 96.742188 C 83.886719 98.125 85.359375 100.847656 85.359375 104.996094 L 85.359375 117.222656 C 85.359375 118.425781 86.074219 119.855469 88.351562 119.453125 C 89.644531 119.019531 90.914062 118.527344 92.164062 117.976562 C 93.414062 117.429688 94.636719 116.820312 95.828125 116.160156 C 97.023438 115.496094 98.183594 114.78125 99.3125 114.011719 C 100.4375 113.242188 101.53125 112.425781 102.582031 111.558594 C 103.636719 110.6875 104.644531 109.773438 105.613281 108.8125 C 106.585938 107.851562 107.507812 106.847656 108.382812 105.800781 C 109.261719 104.753906 110.089844 103.671875 110.867188 102.546875 C 111.644531 101.425781 112.367188 100.273438 113.039062 99.082031 C 113.710938 97.894531 114.328125 96.679688 114.886719 95.433594 C 115.449219 94.1875 115.949219 92.921875 116.394531 91.628906 C 116.835938 90.339844 117.222656 89.03125 117.546875 87.707031 C 117.867188 86.378906 118.132812 85.042969 118.332031 83.691406 C 118.535156 82.339844 118.671875 80.984375 118.75 79.621094 C 118.828125 78.257812 118.839844 76.894531 118.792969 75.53125 C 118.746094 74.167969 118.632812 72.808594 118.460938 71.453125 C 118.289062 70.101562 118.054688 68.757812 117.757812 67.425781 C 117.460938 66.09375 117.105469 64.777344 116.691406 63.476562 C 116.273438 62.175781 115.796875 60.898438 115.265625 59.640625 C 114.730469 58.386719 114.140625 57.15625 113.492188 55.953125 C 112.847656 54.753906 112.148438 53.582031 111.394531 52.445312 C 110.640625 51.304688 109.835938 50.207031 108.980469 49.140625 C 108.125 48.078125 107.222656 47.054688 106.277344 46.074219 C 105.328125 45.089844 104.335938 44.15625 103.300781 43.265625 C 102.265625 42.375 101.195312 41.53125 100.082031 40.738281 C 98.972656 39.949219 97.824219 39.207031 96.644531 38.519531 C 95.46875 37.832031 94.257812 37.203125 93.019531 36.625 C 91.785156 36.046875 90.523438 35.53125 89.238281 35.070312 C 87.953125 34.609375 86.648438 34.207031 85.328125 33.867188 C 84.007812 33.523438 82.671875 33.242188 81.324219 33.023438 C 79.976562 32.804688 78.625 32.648438 77.261719 32.554688 C 75.898438 32.460938 74.535156 32.425781 73.171875 32.457031 C 71.808594 32.488281 70.449219 32.582031 69.089844 32.734375 Z M 69.089844 32.734375 " fill-opacity="1" fill-rule="nonzero"/></svg>