<svg xmlns="http://www.w3.org/2000/svg" xmlns:xlink="http://www.w3.org/1999/xlink" width="200" zoomAndPan="magnify" viewBox="0 0 150 149.999998" height="200" preserveAspectRatio="xMidYMid meet" version="1.0"><defs><clipPath id="7701ae95ce"><path d="M 38.230469 38.230469 L 111.730469 38.230469 L 111.730469 111.730469 L 38.230469 111.730469 Z M 38.230469 38.230469 " clip-rule="nonzero"/></clipPath></defs><g clip-path="url(#7701ae95ce)"><path fill="#f4f3f3" d="M 105.621094 38.230469 L 44.410156 38.230469 C 41.027344 38.230469 38.304688 40.988281 38.304688 44.335938 L 38.304688 105.660156 C 38.304688 109.042969 41.0625 111.765625 44.410156 111.765625 L 105.585938 111.765625 C 108.96875 111.765625 111.691406 109.007812 111.691406 105.660156 L 111.691406 44.335938 C 111.730469 40.988281 109.007812 38.230469 105.621094 38.230469 Z M 60.046875 98.890625 L 49.191406 98.890625 L 49.191406 66.296875 L 60.046875 66.296875 Z M 54.601562 62.363281 C 51.179688 62.363281 48.421875 59.601562 48.421875 56.183594 C 48.421875 52.761719 51.179688 50.003906 54.601562 50.003906 C 58.023438 50.003906 60.78125 52.761719 60.78125 56.183594 C 60.78125 59.601562 58.023438 62.363281 54.601562 62.363281 Z M 100.878906 98.890625 L 89.988281 98.890625 L 89.730469 79.542969 C 89.730469 79.542969 89.988281 74.390625 84.359375 74.429688 C 78.730469 74.464844 77.960938 79.542969 77.960938 79.542969 L 77.960938 98.890625 L 66.996094 98.890625 L 66.996094 66.296875 L 77.519531 66.296875 L 77.519531 70.785156 C 77.519531 70.785156 77.960938 69.316406 80.386719 67.585938 C 82.816406 65.855469 86.824219 65.488281 88.554688 65.5625 C 90.28125 65.636719 92.636719 65.34375 96.574219 68.0625 C 100.804688 70.96875 100.914062 78.585938 100.914062 78.585938 Z M 100.878906 98.890625 " fill-opacity="1" fill-rule="nonzero"/></g></svg>